# xmcd
#
# Track frame offsets: 
#        150
#        21165
#        41860
#        65350
#        79310
#        99350
#        126572
#        150795
#        171877
#        191602
#
# Disc length: 2870 seconds
#
# Revision: 0
# Processed by: cddbd v1.5.2PL0 Copyright (c) Steve Scherf et al.
# Submitted via: ExactAudioCopy v0.95b4
#
DISCID=7e0b340a
DTITLE=Paula and the Pontiacs - 30 by 90
DYEAR=1997
DGENRE=R&B
TTITLE0=No Frills Mama
TTITLE1=Rough 'n Tumble Man
TTITLE2=The Man in My Dreams
TTITLE3=30 by 90
TTITLE4=Harmonica Girl
TTITLE5=Time and Money
TTITLE6=You Make Me Feel Like Singing
TTITLE7=Get Nobody to Love
TTITLE8=The Way You Walk Tall
TTITLE9=I Got It All From You
EXTD=
EXTT0=
EXTT1=
EXTT2=
EXTT3=
EXTT4=
EXTT5=
EXTT6=
EXTT7=
EXTT8=
EXTT9=
PLAYORDER=
